<?xml version="1.0" encoding="utf-8" standalone="no"?>
<!DOCTYPE svg PUBLIC "-//W3C//DTD SVG 1.1//EN"
  "http://www.w3.org/Graphics/SVG/1.1/DTD/svg11.dtd">
<svg xmlns:xlink="http://www.w3.org/1999/xlink" width="460.8pt" height="345.6pt" viewBox="0 0 460.8 345.6" xmlns="http://www.w3.org/2000/svg" version="1.1">
 <metadata>
  <rdf:RDF xmlns:dc="http://purl.org/dc/elements/1.1/" xmlns:cc="http://creativecommons.org/ns#" xmlns:rdf="http://www.w3.org/1999/02/22-rdf-syntax-ns#">
   <cc:Work>
    <dc:type rdf:resource="http://purl.org/dc/dcmitype/StillImage"/>
    <dc:date>2023-11-20T20:35:05.104168</dc:date>
    <dc:format>image/svg+xml</dc:format>
    <dc:creator>
     <cc:Agent>
      <dc:title>Matplotlib v3.8.0, https://matplotlib.org/</dc:title>
     </cc:Agent>
    </dc:creator>
   </cc:Work>
  </rdf:RDF>
 </metadata>
 <defs>
  <style type="text/css">*{stroke-linejoin: round; stroke-linecap: butt}</style>
 </defs>
 <g id="figure_1">
  <g id="patch_1">
   <path d="M 0 345.6 
L 460.8 345.6 
L 460.8 0 
L 0 0 
z
" style="fill: #ffffff"/>
  </g>
  <g id="axes_1">
   <g id="patch_2">
    <path d="M 57.6 307.584 
L 414.72 307.584 
L 414.72 41.472 
L 57.6 41.472 
z
" style="fill: #ffffff"/>
   </g>
   <g id="PolyCollection_1">
    <defs>
     <path id="m5b3453ae5a" d="M 73.832727 -80.432368 
L 73.832727 -73.03301 
L 74.918528 -74.546778 
L 76.00433 -72.251711 
L 77.090131 -70.786774 
L 78.175932 -71.42158 
L 79.261733 -71.079761 
L 80.347534 -70.103137 
L 81.433335 -70.982099 
L 82.519137 -70.640281 
L 83.604938 -71.958723 
L 84.690739 -71.079761 
L 85.77654 -72.349373 
L 86.862341 -72.593529 
L 87.948142 -72.935347 
L 89.033943 -70.884437 
L 90.119745 -71.079761 
L 91.205546 -72.691191 
L 92.291347 -71.372749 
L 93.377148 -71.275086 
L 94.462949 -70.444956 
L 95.54875 -68.687032 
L 96.634552 -71.763398 
L 97.720353 -69.468331 
L 98.806154 -73.716647 
L 99.891955 -69.614825 
L 100.977756 -69.517162 
L 102.063557 -69.224175 
L 103.149358 -70.640281 
L 104.23516 -69.4195 
L 105.320961 -69.224175 
L 106.406762 -72.984179 
L 107.492563 -70.396124 
L 108.578364 -72.544698 
L 109.664165 -71.763398 
L 110.749967 -79.820551 
L 111.835768 -74.937428 
L 112.921569 -81.920293 
L 114.00737 -76.011715 
L 115.093171 -80.553019 
L 116.178972 -75.767559 
L 117.264773 -75.083922 
L 118.350575 -77.086001 
L 119.436376 -82.408606 
L 120.522177 -82.115617 
L 121.607978 -81.138993 
L 122.693779 -75.81639 
L 123.77958 -74.302622 
L 124.865382 -74.64444 
L 125.951183 -80.064707 
L 127.036984 -93.73745 
L 128.122785 -86.217441 
L 129.208586 -89.049651 
L 130.294387 -88.512508 
L 131.380189 -82.701592 
L 132.46599 -96.13018 
L 133.551791 -92.66316 
L 134.637592 -92.028357 
L 135.723393 -90.368094 
L 136.809194 -85.484972 
L 137.894995 -89.34264 
L 138.980797 -90.465757 
L 140.066598 -102.771226 
L 141.152399 -113.562925 
L 142.2382 -125.087097 
L 143.324001 -124.061638 
L 144.409802 -132.314112 
L 145.495604 -129.872551 
L 146.581405 -134.072039 
L 147.667206 -146.621662 
L 148.753007 -143.740623 
L 149.838808 -145.254386 
L 150.924609 -132.509441 
L 152.01041 -170.744291 
L 153.096212 -139.589969 
L 154.182013 -154.336997 
L 155.267814 -178.606113 
L 156.353615 -163.614929 
L 157.439416 -190.472102 
L 158.525217 -173.527669 
L 159.611019 -188.323531 
L 160.69682 -175.96923 
L 161.782621 -174.308964 
L 162.868422 -184.368199 
L 163.954223 -189.593146 
L 165.040024 -183.831052 
L 166.125825 -185.735475 
L 167.211627 -186.663272 
L 168.297428 -200.677824 
L 169.383229 -191.155736 
L 170.46903 -191.20457 
L 171.554831 -201.410293 
L 172.640632 -189.886121 
L 173.726434 -193.890287 
L 174.812235 -199.212888 
L 175.898036 -218.794211 
L 176.983837 -206.732893 
L 178.069638 -200.091859 
L 179.155439 -199.603546 
L 180.24124 -214.350567 
L 181.327042 -201.703283 
L 182.412843 -207.074718 
L 183.498644 -206.488737 
L 184.584445 -199.554712 
L 185.670246 -212.446152 
L 186.756047 -211.225371 
L 187.841849 -208.49082 
L 188.92765 -206.977049 
L 190.013451 -209.076801 
L 191.099252 -205.267956 
L 192.185053 -206.049259 
L 193.270854 -220.014992 
L 194.356656 -199.554712 
L 195.442457 -210.883547 
L 196.528258 -200.775493 
L 197.614059 -195.062234 
L 198.69986 -210.346415 
L 199.785661 -228.120978 
L 200.871462 -210.102259 
L 201.957264 -212.54382 
L 203.043065 -208.686142 
L 204.128866 -212.690308 
L 205.214667 -192.474185 
L 206.300468 -218.452387 
L 207.386269 -218.452387 
L 208.472071 -221.333441 
L 209.557872 -220.45447 
L 210.643673 -219.136036 
L 211.729474 -231.490329 
L 212.815275 -239.400993 
L 213.901076 -205.414459 
L 214.986877 -208.441986 
L 216.072679 -207.514196 
L 217.15848 -213.569264 
L 218.244281 -206.879396 
L 219.330082 -217.426943 
L 220.415883 -223.335509 
L 221.501684 -213.520445 
L 222.587486 -195.550546 
L 223.673287 -223.140187 
L 224.759088 -221.724084 
L 225.844889 -229.341758 
L 226.93069 -217.231606 
L 228.016491 -222.407719 
L 229.102292 -214.350567 
L 230.188094 -219.722001 
L 231.273895 -208.002508 
L 232.359696 -230.269548 
L 233.445497 -214.252913 
L 234.531298 -220.063826 
L 235.617099 -225.77707 
L 236.702901 -211.518362 
L 237.788702 -200.775493 
L 238.874503 -209.223288 
L 239.960304 -210.151079 
L 241.046105 -206.732893 
L 242.131906 -235.152671 
L 243.217708 -211.469528 
L 244.303509 -209.320957 
L 245.38931 -207.709517 
L 246.475111 -202.924064 
L 247.560912 -205.853937 
L 248.646713 -217.475762 
L 249.732514 -223.189021 
L 250.818316 -213.911089 
L 251.904117 -211.762518 
L 252.989918 -214.448235 
L 254.075719 -202.386917 
L 255.16152 -217.378109 
L 256.247321 -213.569264 
L 257.333123 -211.03005 
L 258.418924 -211.66485 
L 259.504725 -209.662766 
L 260.590526 -203.558863 
L 261.676327 -222.212397 
L 262.762128 -226.607207 
L 263.847929 -229.341758 
L 264.933731 -204.291332 
L 266.019532 -235.885139 
L 267.105333 -211.078884 
L 268.191134 -210.248747 
L 269.276935 -210.883547 
L 270.362736 -211.66485 
L 271.448538 -220.259148 
L 272.534339 -212.739142 
L 273.62014 -207.85602 
L 274.705941 -214.497069 
L 275.791742 -210.199913 
L 276.877543 -219.81967 
L 277.963344 -211.762518 
L 279.049146 -215.327191 
L 280.134947 -212.494986 
L 281.220748 -217.57343 
L 282.306549 -212.494986 
L 283.39235 -215.180704 
L 284.478151 -213.666933 
L 285.563953 -214.204079 
L 286.649754 -223.140187 
L 287.735555 -209.41861 
L 288.821356 -202.679907 
L 289.907157 -200.970815 
L 290.992958 -212.641474 
L 292.07876 -200.238346 
L 293.164561 -206.635239 
L 294.250362 -221.626416 
L 295.336163 -212.348484 
L 296.421964 -213.862255 
L 297.507765 -209.272123 
L 298.593566 -216.254981 
L 299.679368 -222.017075 
L 300.765169 -199.945356 
L 301.85097 -222.847197 
L 302.936771 -207.025883 
L 304.022572 -202.045108 
L 305.108373 -197.161985 
L 306.194175 -199.7012 
L 307.279976 -221.772919 
L 308.365777 -200.140678 
L 309.451578 -204.633156 
L 310.537379 -204.926147 
L 311.62318 -193.694965 
L 312.708981 -205.756269 
L 313.794783 -205.316791 
L 314.880584 -221.333441 
L 315.966385 -209.711601 
L 317.052186 -211.32304 
L 318.137987 -200.970815 
L 319.223788 -207.904854 
L 320.30959 -203.363542 
L 321.395391 -202.142761 
L 322.481192 -202.338083 
L 323.566993 -218.061743 
L 324.652794 -203.851854 
L 325.738595 -201.068483 
L 326.824396 -190.960414 
L 327.910198 -210.004591 
L 328.995999 -200.531337 
L 330.0818 -201.898605 
L 331.167601 -200.824327 
L 332.253402 -198.089775 
L 333.339203 -194.427434 
L 334.425005 -203.558863 
L 335.510806 -210.444069 
L 336.596607 -197.503795 
L 337.682408 -207.56303 
L 338.768209 -202.240429 
L 339.85401 -202.240429 
L 340.939811 -191.155736 
L 342.025613 -200.140678 
L 343.111414 -202.484586 
L 344.197215 -212.055508 
L 345.283016 -198.968732 
L 346.368817 -206.000425 
L 347.454618 -216.35265 
L 348.54042 -212.25083 
L 349.626221 -212.153162 
L 350.712022 -196.771326 
L 351.797823 -210.981215 
L 352.883624 -195.208736 
L 353.969425 -197.357307 
L 355.055227 -192.425351 
L 356.141028 -192.230029 
L 357.226829 -202.435751 
L 358.31263 -189.34899 
L 359.398431 -199.750034 
L 360.484232 -196.966648 
L 361.570033 -202.240429 
L 362.655835 -203.7542 
L 363.741636 -188.763009 
L 364.827437 -196.185361 
L 365.913238 -194.476268 
L 366.999039 -207.709517 
L 368.08484 -205.365625 
L 369.170642 -205.0238 
L 370.256443 -201.800951 
L 371.342244 -195.159902 
L 372.428045 -191.058082 
L 373.513846 -218.501221 
L 374.599647 -197.796785 
L 375.685448 -202.972898 
L 376.77125 -193.548463 
L 377.857051 -188.66534 
L 378.942852 -202.582239 
L 380.028653 -195.941205 
L 381.114454 -192.278863 
L 382.200255 -193.108985 
L 383.286057 -180.657023 
L 384.371858 -211.811352 
L 385.457659 -191.302238 
L 386.54346 -206.244581 
L 387.629261 -203.217054 
L 388.715062 -204.389 
L 389.800863 -190.862746 
L 390.886665 -184.954172 
L 391.972466 -192.034707 
L 393.058267 -192.864829 
L 394.144068 -200.189512 
L 395.229869 -191.058082 
L 396.31567 -186.663272 
L 397.401472 -195.208736 
L 398.487273 -191.253404 
L 398.487273 -237.375976 
L 398.487273 -237.375976 
L 397.401472 -244.380621 
L 396.31567 -233.017109 
L 395.229869 -234.773949 
L 394.144068 -246.023534 
L 393.058267 -239.647444 
L 391.972466 -241.589129 
L 390.886665 -230.304479 
L 389.800863 -234.197565 
L 388.715062 -256.335687 
L 387.629261 -252.194794 
L 386.54346 -265.342267 
L 385.457659 -233.786371 
L 384.371858 -264.682059 
L 383.286057 -226.565555 
L 382.200255 -238.282605 
L 381.114454 -237.367273 
L 380.028653 -240.559274 
L 378.942852 -252.083714 
L 377.857051 -233.726718 
L 376.77125 -243.535285 
L 375.685448 -247.161593 
L 374.599647 -242.384082 
L 373.513846 -273.852458 
L 372.428045 -237.752462 
L 371.342244 -237.684017 
L 370.256443 -248.595653 
L 369.170642 -250.34358 
L 368.08484 -254.584466 
L 366.999039 -253.686451 
L 365.913238 -237.963655 
L 364.827437 -247.879904 
L 363.741636 -236.212419 
L 362.655835 -254.160487 
L 361.570033 -245.224513 
L 360.484232 -240.390791 
L 359.398431 -246.314989 
L 358.31263 -235.807454 
L 357.226829 -259.542651 
L 356.141028 -239.107556 
L 355.055227 -235.421475 
L 353.969425 -245.138468 
L 352.883624 -237.528543 
L 351.797823 -260.711333 
L 350.712022 -244.953906 
L 349.626221 -256.642432 
L 348.54042 -265.34264 
L 347.454618 -259.699808 
L 346.368817 -253.009224 
L 345.283016 -242.991045 
L 344.197215 -259.720269 
L 343.111414 -245.997202 
L 342.025613 -242.361922 
L 340.939811 -237.068158 
L 339.85401 -245.396751 
L 338.768209 -246.42449 
L 337.682408 -262.65269 
L 336.596607 -245.47077 
L 335.510806 -251.130531 
L 334.425005 -252.34547 
L 333.339203 -240.825068 
L 332.253402 -242.926653 
L 331.167601 -250.90843 
L 330.0818 -248.084898 
L 328.995999 -244.475935 
L 327.910198 -250.759081 
L 326.824396 -236.913683 
L 325.738595 -249.268438 
L 324.652794 -252.639756 
L 323.566993 -271.355312 
L 322.481192 -252.327542 
L 321.395391 -250.355025 
L 320.30959 -248.124731 
L 319.223788 -257.80201 
L 318.137987 -252.783711 
L 317.052186 -261.495542 
L 315.966385 -260.643603 
L 314.880584 -270.131447 
L 313.794783 -255.851906 
L 312.708981 -253.925987 
L 311.62318 -241.283189 
L 310.537379 -264.434029 
L 309.451578 -250.458252 
L 308.365777 -247.543474 
L 307.279976 -273.744194 
L 306.194175 -249.047559 
L 305.108373 -243.252875 
L 304.022572 -247.673242 
L 302.936771 -251.447946 
L 301.85097 -268.512467 
L 300.765169 -259.667441 
L 299.679368 -277.693327 
L 298.593566 -275.123474 
L 297.507765 -259.351188 
L 296.421964 -270.846644 
L 295.336163 -267.337436 
L 294.250362 -267.079287 
L 293.164561 -250.070603 
L 292.07876 -250.842503 
L 290.992958 -260.259189 
L 289.907157 -253.231251 
L 288.821356 -252.301762 
L 287.735555 -268.569959 
L 286.649754 -283.115161 
L 285.563953 -273.727549 
L 284.478151 -266.657363 
L 283.39235 -265.56039 
L 282.306549 -262.844823 
L 281.220748 -275.229323 
L 280.134947 -259.845014 
L 279.049146 -265.585902 
L 277.963344 -267.888084 
L 276.877543 -271.692964 
L 275.791742 -262.677875 
L 274.705941 -275.758929 
L 273.62014 -255.334996 
L 272.534339 -258.153759 
L 271.448538 -277.068243 
L 270.362736 -260.281393 
L 269.276935 -261.350768 
L 268.191134 -268.588036 
L 267.105333 -261.700222 
L 266.019532 -282.645416 
L 264.933731 -265.04126 
L 263.847929 -283.11683 
L 262.762128 -277.517259 
L 261.676327 -285.688814 
L 260.590526 -253.842535 
L 259.504725 -260.959603 
L 258.418924 -263.267641 
L 257.333123 -255.032051 
L 256.247321 -260.21326 
L 255.16152 -279.003744 
L 254.075719 -249.658977 
L 252.989918 -264.521057 
L 251.904117 -262.436372 
L 250.818316 -280.519541 
L 249.732514 -279.89027 
L 248.646713 -280.1072 
L 247.560912 -259.608831 
L 246.475111 -257.503625 
L 245.38931 -260.093909 
L 244.303509 -261.519475 
L 243.217708 -257.424525 
L 242.131906 -289.687064 
L 241.046105 -250.531868 
L 239.960304 -254.937617 
L 238.874503 -257.107885 
L 237.788702 -248.814892 
L 236.702901 -260.986456 
L 235.617099 -276.646007 
L 234.531298 -273.491917 
L 233.445497 -269.041671 
L 232.359696 -286.588335 
L 231.273895 -266.90143 
L 230.188094 -270.267205 
L 229.102292 -258.021354 
L 228.016491 -276.928491 
L 226.93069 -277.811978 
L 225.844889 -283.679012 
L 224.759088 -275.725713 
L 223.673287 -278.178093 
L 222.587486 -239.970075 
L 221.501684 -265.637493 
L 220.415883 -281.670163 
L 219.330082 -271.101216 
L 218.244281 -260.492138 
L 217.15848 -273.560407 
L 216.072679 -256.674442 
L 214.986877 -261.136878 
L 213.901076 -253.730352 
L 212.815275 -292.032 
L 211.729474 -284.623447 
L 210.643673 -268.329469 
L 209.557872 -277.784081 
L 208.472071 -269.372497 
L 207.386269 -273.724047 
L 206.300468 -276.681131 
L 205.214667 -239.180293 
L 204.128866 -269.273339 
L 203.043065 -263.135847 
L 201.957264 -265.291496 
L 200.871462 -265.484895 
L 199.785661 -278.298442 
L 198.69986 -259.061417 
L 197.614059 -250.451278 
L 196.528258 -258.816203 
L 195.442457 -259.438246 
L 194.356656 -253.546624 
L 193.270854 -269.457797 
L 192.185053 -253.618676 
L 191.099252 -253.132003 
L 190.013451 -264.362558 
L 188.92765 -261.792273 
L 187.841849 -256.605729 
L 186.756047 -265.961018 
L 185.670246 -277.807477 
L 184.584445 -257.111238 
L 183.498644 -261.87951 
L 182.412843 -260.818658 
L 181.327042 -259.262014 
L 180.24124 -266.36567 
L 179.155439 -261.482577 
L 178.069638 -258.040548 
L 176.983837 -265.290587 
L 175.898036 -274.397994 
L 174.812235 -259.421973 
L 173.726434 -253.825741 
L 172.640632 -240.383787 
L 171.554831 -263.697358 
L 170.46903 -253.223964 
L 169.383229 -253.792315 
L 168.297428 -262.802308 
L 167.211627 -250.655899 
L 166.125825 -239.853779 
L 165.040024 -250.089425 
L 163.954223 -258.841641 
L 162.868422 -233.408543 
L 161.782621 -233.360633 
L 160.69682 -227.741108 
L 159.611019 -256.738849 
L 158.525217 -224.815199 
L 157.439416 -250.013722 
L 156.353615 -225.752437 
L 155.267814 -231.925918 
L 154.182013 -199.080304 
L 153.096212 -188.362455 
L 152.01041 -240.854157 
L 150.924609 -189.031008 
L 149.838808 -210.047449 
L 148.753007 -203.223059 
L 147.667206 -218.475977 
L 146.581405 -185.109042 
L 145.495604 -187.275704 
L 144.409802 -194.401906 
L 143.324001 -172.448101 
L 142.2382 -176.466193 
L 141.152399 -154.251868 
L 140.066598 -143.368219 
L 138.980797 -115.405083 
L 137.894995 -110.242617 
L 136.809194 -101.20057 
L 135.723393 -112.504913 
L 134.637592 -115.460787 
L 133.551791 -127.214328 
L 132.46599 -131.203249 
L 131.380189 -105.480254 
L 130.294387 -113.794743 
L 129.208586 -115.484791 
L 128.122785 -112.923998 
L 127.036984 -132.576911 
L 125.951183 -98.89476 
L 124.865382 -87.78116 
L 123.77958 -83.398726 
L 122.693779 -84.336005 
L 121.607978 -99.229919 
L 120.522177 -111.742976 
L 119.436376 -103.932595 
L 118.350575 -95.052527 
L 117.264773 -90.713389 
L 116.178972 -92.354929 
L 115.093171 -109.647077 
L 114.00737 -92.071174 
L 112.921569 -113.728585 
L 111.835768 -86.736229 
L 110.749967 -95.617198 
L 109.664165 -76.974351 
L 108.578364 -80.85478 
L 107.492563 -76.810407 
L 106.406762 -81.287719 
L 105.320961 -72.607693 
L 104.23516 -73.897619 
L 103.149358 -77.176291 
L 102.063557 -72.261061 
L 100.977756 -75.422174 
L 99.891955 -72.379532 
L 98.806154 -85.455228 
L 97.720353 -74.268275 
L 96.634552 -77.03501 
L 95.54875 -71.672444 
L 94.462949 -75.837559 
L 93.377148 -74.089184 
L 92.291347 -75.15835 
L 91.205546 -79.073797 
L 90.119745 -77.728504 
L 89.033943 -75.05626 
L 87.948142 -82.734228 
L 86.862341 -77.250025 
L 85.77654 -77.447243 
L 84.690739 -75.667761 
L 83.604938 -80.184848 
L 82.519137 -75.210633 
L 81.433335 -74.722639 
L 80.347534 -73.176445 
L 79.261733 -75.638795 
L 78.175932 -76.567814 
L 77.090131 -74.393166 
L 76.00433 -78.434642 
L 74.918528 -80.541517 
L 73.832727 -80.432368 
z
" style="stroke: #0000ff; stroke-opacity: 0.3"/>
    </defs>
    <g clip-path="url(#pa17d5f63a8)">
     <use xlink:href="#m5b3453ae5a" x="0" y="345.6" style="fill: #0000ff; fill-opacity: 0.3; stroke: #0000ff; stroke-opacity: 0.3"/>
    </g>
   </g>
   <g id="PolyCollection_2">
    <defs>
     <path id="m2023e1ccfb" d="M 73.832727 -65.633652 
L 73.832727 -73.03301 
L 74.918528 -74.546778 
L 76.00433 -72.251711 
L 77.090131 -70.786774 
L 78.175932 -71.42158 
L 79.261733 -71.079761 
L 80.347534 -70.103137 
L 81.433335 -70.982099 
L 82.519137 -70.640281 
L 83.604938 -71.958723 
L 84.690739 -71.079761 
L 85.77654 -72.349373 
L 86.862341 -72.593529 
L 87.948142 -72.935347 
L 89.033943 -70.884437 
L 90.119745 -71.079761 
L 91.205546 -72.691191 
L 92.291347 -71.372749 
L 93.377148 -71.275086 
L 94.462949 -70.444956 
L 95.54875 -68.687032 
L 96.634552 -71.763398 
L 97.720353 -69.468331 
L 98.806154 -73.716647 
L 99.891955 -69.614825 
L 100.977756 -69.517162 
L 102.063557 -69.224175 
L 103.149358 -70.640281 
L 104.23516 -69.4195 
L 105.320961 -69.224175 
L 106.406762 -72.984179 
L 107.492563 -70.396124 
L 108.578364 -72.544698 
L 109.664165 -71.763398 
L 110.749967 -79.820551 
L 111.835768 -74.937428 
L 112.921569 -81.920293 
L 114.00737 -76.011715 
L 115.093171 -80.553019 
L 116.178972 -75.767559 
L 117.264773 -75.083922 
L 118.350575 -77.086001 
L 119.436376 -82.408606 
L 120.522177 -82.115617 
L 121.607978 -81.138993 
L 122.693779 -75.81639 
L 123.77958 -74.302622 
L 124.865382 -74.64444 
L 125.951183 -80.064707 
L 127.036984 -93.73745 
L 128.122785 -86.217441 
L 129.208586 -89.049651 
L 130.294387 -88.512508 
L 131.380189 -82.701592 
L 132.46599 -96.13018 
L 133.551791 -92.66316 
L 134.637592 -92.028357 
L 135.723393 -90.368094 
L 136.809194 -85.484972 
L 137.894995 -89.34264 
L 138.980797 -90.465757 
L 140.066598 -102.771226 
L 141.152399 -113.562925 
L 142.2382 -125.087097 
L 143.324001 -124.061638 
L 144.409802 -132.314112 
L 145.495604 -129.872551 
L 146.581405 -134.072039 
L 147.667206 -146.621662 
L 148.753007 -143.740623 
L 149.838808 -145.254386 
L 150.924609 -132.509441 
L 152.01041 -170.744291 
L 153.096212 -139.589969 
L 154.182013 -154.336997 
L 155.267814 -178.606113 
L 156.353615 -163.614929 
L 157.439416 -190.472102 
L 158.525217 -173.527669 
L 159.611019 -188.323531 
L 160.69682 -175.96923 
L 161.782621 -174.308964 
L 162.868422 -184.368199 
L 163.954223 -189.593146 
L 165.040024 -183.831052 
L 166.125825 -185.735475 
L 167.211627 -186.663272 
L 168.297428 -200.677824 
L 169.383229 -191.155736 
L 170.46903 -191.20457 
L 171.554831 -201.410293 
L 172.640632 -189.886121 
L 173.726434 -193.890287 
L 174.812235 -199.212888 
L 175.898036 -218.794211 
L 176.983837 -206.732893 
L 178.069638 -200.091859 
L 179.155439 -199.603546 
L 180.24124 -214.350567 
L 181.327042 -201.703283 
L 182.412843 -207.074718 
L 183.498644 -206.488737 
L 184.584445 -199.554712 
L 185.670246 -212.446152 
L 186.756047 -211.225371 
L 187.841849 -208.49082 
L 188.92765 -206.977049 
L 190.013451 -209.076801 
L 191.099252 -205.267956 
L 192.185053 -206.049259 
L 193.270854 -220.014992 
L 194.356656 -199.554712 
L 195.442457 -210.883547 
L 196.528258 -200.775493 
L 197.614059 -195.062234 
L 198.69986 -210.346415 
L 199.785661 -228.120978 
L 200.871462 -210.102259 
L 201.957264 -212.54382 
L 203.043065 -208.686142 
L 204.128866 -212.690308 
L 205.214667 -192.474185 
L 206.300468 -218.452387 
L 207.386269 -218.452387 
L 208.472071 -221.333441 
L 209.557872 -220.45447 
L 210.643673 -219.136036 
L 211.729474 -231.490329 
L 212.815275 -239.400993 
L 213.901076 -205.414459 
L 214.986877 -208.441986 
L 216.072679 -207.514196 
L 217.15848 -213.569264 
L 218.244281 -206.879396 
L 219.330082 -217.426943 
L 220.415883 -223.335509 
L 221.501684 -213.520445 
L 222.587486 -195.550546 
L 223.673287 -223.140187 
L 224.759088 -221.724084 
L 225.844889 -229.341758 
L 226.93069 -217.231606 
L 228.016491 -222.407719 
L 229.102292 -214.350567 
L 230.188094 -219.722001 
L 231.273895 -208.002508 
L 232.359696 -230.269548 
L 233.445497 -214.252913 
L 234.531298 -220.063826 
L 235.617099 -225.77707 
L 236.702901 -211.518362 
L 237.788702 -200.775493 
L 238.874503 -209.223288 
L 239.960304 -210.151079 
L 241.046105 -206.732893 
L 242.131906 -235.152671 
L 243.217708 -211.469528 
L 244.303509 -209.320957 
L 245.38931 -207.709517 
L 246.475111 -202.924064 
L 247.560912 -205.853937 
L 248.646713 -217.475762 
L 249.732514 -223.189021 
L 250.818316 -213.911089 
L 251.904117 -211.762518 
L 252.989918 -214.448235 
L 254.075719 -202.386917 
L 255.16152 -217.378109 
L 256.247321 -213.569264 
L 257.333123 -211.03005 
L 258.418924 -211.66485 
L 259.504725 -209.662766 
L 260.590526 -203.558863 
L 261.676327 -222.212397 
L 262.762128 -226.607207 
L 263.847929 -229.341758 
L 264.933731 -204.291332 
L 266.019532 -235.885139 
L 267.105333 -211.078884 
L 268.191134 -210.248747 
L 269.276935 -210.883547 
L 270.362736 -211.66485 
L 271.448538 -220.259148 
L 272.534339 -212.739142 
L 273.62014 -207.85602 
L 274.705941 -214.497069 
L 275.791742 -210.199913 
L 276.877543 -219.81967 
L 277.963344 -211.762518 
L 279.049146 -215.327191 
L 280.134947 -212.494986 
L 281.220748 -217.57343 
L 282.306549 -212.494986 
L 283.39235 -215.180704 
L 284.478151 -213.666933 
L 285.563953 -214.204079 
L 286.649754 -223.140187 
L 287.735555 -209.41861 
L 288.821356 -202.679907 
L 289.907157 -200.970815 
L 290.992958 -212.641474 
L 292.07876 -200.238346 
L 293.164561 -206.635239 
L 294.250362 -221.626416 
L 295.336163 -212.348484 
L 296.421964 -213.862255 
L 297.507765 -209.272123 
L 298.593566 -216.254981 
L 299.679368 -222.017075 
L 300.765169 -199.945356 
L 301.85097 -222.847197 
L 302.936771 -207.025883 
L 304.022572 -202.045108 
L 305.108373 -197.161985 
L 306.194175 -199.7012 
L 307.279976 -221.772919 
L 308.365777 -200.140678 
L 309.451578 -204.633156 
L 310.537379 -204.926147 
L 311.62318 -193.694965 
L 312.708981 -205.756269 
L 313.794783 -205.316791 
L 314.880584 -221.333441 
L 315.966385 -209.711601 
L 317.052186 -211.32304 
L 318.137987 -200.970815 
L 319.223788 -207.904854 
L 320.30959 -203.363542 
L 321.395391 -202.142761 
L 322.481192 -202.338083 
L 323.566993 -218.061743 
L 324.652794 -203.851854 
L 325.738595 -201.068483 
L 326.824396 -190.960414 
L 327.910198 -210.004591 
L 328.995999 -200.531337 
L 330.0818 -201.898605 
L 331.167601 -200.824327 
L 332.253402 -198.089775 
L 333.339203 -194.427434 
L 334.425005 -203.558863 
L 335.510806 -210.444069 
L 336.596607 -197.503795 
L 337.682408 -207.56303 
L 338.768209 -202.240429 
L 339.85401 -202.240429 
L 340.939811 -191.155736 
L 342.025613 -200.140678 
L 343.111414 -202.484586 
L 344.197215 -212.055508 
L 345.283016 -198.968732 
L 346.368817 -206.000425 
L 347.454618 -216.35265 
L 348.54042 -212.25083 
L 349.626221 -212.153162 
L 350.712022 -196.771326 
L 351.797823 -210.981215 
L 352.883624 -195.208736 
L 353.969425 -197.357307 
L 355.055227 -192.425351 
L 356.141028 -192.230029 
L 357.226829 -202.435751 
L 358.31263 -189.34899 
L 359.398431 -199.750034 
L 360.484232 -196.966648 
L 361.570033 -202.240429 
L 362.655835 -203.7542 
L 363.741636 -188.763009 
L 364.827437 -196.185361 
L 365.913238 -194.476268 
L 366.999039 -207.709517 
L 368.08484 -205.365625 
L 369.170642 -205.0238 
L 370.256443 -201.800951 
L 371.342244 -195.159902 
L 372.428045 -191.058082 
L 373.513846 -218.501221 
L 374.599647 -197.796785 
L 375.685448 -202.972898 
L 376.77125 -193.548463 
L 377.857051 -188.66534 
L 378.942852 -202.582239 
L 380.028653 -195.941205 
L 381.114454 -192.278863 
L 382.200255 -193.108985 
L 383.286057 -180.657023 
L 384.371858 -211.811352 
L 385.457659 -191.302238 
L 386.54346 -206.244581 
L 387.629261 -203.217054 
L 388.715062 -204.389 
L 389.800863 -190.862746 
L 390.886665 -184.954172 
L 391.972466 -192.034707 
L 393.058267 -192.864829 
L 394.144068 -200.189512 
L 395.229869 -191.058082 
L 396.31567 -186.663272 
L 397.401472 -195.208736 
L 398.487273 -191.253404 
L 398.487273 -145.130825 
L 398.487273 -145.130825 
L 397.401472 -146.036851 
L 396.31567 -140.309435 
L 395.229869 -147.342216 
L 394.144068 -154.35549 
L 393.058267 -146.082213 
L 391.972466 -142.480277 
L 390.886665 -139.603865 
L 389.800863 -147.527926 
L 388.715062 -152.442306 
L 387.629261 -154.239313 
L 386.54346 -147.146894 
L 385.457659 -148.818106 
L 384.371858 -158.940645 
L 383.286057 -134.74849 
L 382.200255 -147.935365 
L 381.114454 -147.190453 
L 380.028653 -151.323135 
L 378.942852 -153.080764 
L 377.857051 -143.60397 
L 376.77125 -143.561648 
L 375.685448 -158.784195 
L 374.599647 -153.209488 
L 373.513846 -163.149976 
L 372.428045 -144.363702 
L 371.342244 -152.635787 
L 370.256443 -155.00625 
L 369.170642 -159.704028 
L 368.08484 -156.146783 
L 366.999039 -161.732584 
L 365.913238 -150.988873 
L 364.827437 -144.490825 
L 363.741636 -141.313591 
L 362.655835 -153.347914 
L 361.570033 -159.256346 
L 360.484232 -153.542506 
L 359.398431 -153.185079 
L 358.31263 -142.890525 
L 357.226829 -145.328852 
L 356.141028 -145.352502 
L 355.055227 -149.429219 
L 353.969425 -149.576146 
L 352.883624 -152.888937 
L 351.797823 -161.25109 
L 350.712022 -148.58874 
L 349.626221 -167.663891 
L 348.54042 -159.15902 
L 347.454618 -173.005484 
L 346.368817 -158.991625 
L 345.283016 -154.946418 
L 344.197215 -164.390748 
L 343.111414 -158.971969 
L 342.025613 -157.919441 
L 340.939811 -145.243306 
L 339.85401 -159.084107 
L 338.768209 -158.056369 
L 337.682408 -152.473369 
L 336.596607 -149.536827 
L 335.510806 -169.7576 
L 334.425005 -154.772257 
L 333.339203 -148.029807 
L 332.253402 -153.252891 
L 331.167601 -150.740217 
L 330.0818 -155.712312 
L 328.995999 -156.586738 
L 327.910198 -169.250101 
L 326.824396 -145.007145 
L 325.738595 -152.868528 
L 324.652794 -155.063951 
L 323.566993 -164.768181 
L 322.481192 -152.348623 
L 321.395391 -153.93049 
L 320.30959 -158.602352 
L 319.223788 -158.007698 
L 318.137987 -149.157919 
L 317.052186 -161.150538 
L 315.966385 -158.779598 
L 314.880584 -172.535434 
L 313.794783 -154.781676 
L 312.708981 -157.58655 
L 311.62318 -146.106742 
L 310.537379 -145.418265 
L 309.451578 -158.808061 
L 308.365777 -152.737881 
L 307.279976 -169.801643 
L 306.194175 -150.354841 
L 305.108373 -151.071096 
L 304.022572 -156.416981 
L 302.936771 -162.603814 
L 301.85097 -177.181926 
L 300.765169 -140.223264 
L 299.679368 -166.340822 
L 298.593566 -157.386489 
L 297.507765 -159.193064 
L 296.421964 -156.877865 
L 295.336163 -157.359524 
L 294.250362 -176.173545 
L 293.164561 -163.199876 
L 292.07876 -149.634182 
L 290.992958 -165.023759 
L 289.907157 -148.710378 
L 288.821356 -153.058053 
L 287.735555 -150.267261 
L 286.649754 -163.165213 
L 285.563953 -154.680617 
L 284.478151 -160.676494 
L 283.39235 -164.801017 
L 282.306549 -162.145149 
L 281.220748 -159.917538 
L 280.134947 -165.144951 
L 279.049146 -165.068473 
L 277.963344 -155.636952 
L 276.877543 -167.946368 
L 275.791742 -157.721958 
L 274.705941 -153.235209 
L 273.62014 -160.377044 
L 272.534339 -167.324525 
L 271.448538 -163.45006 
L 270.362736 -163.048306 
L 269.276935 -160.416326 
L 268.191134 -151.909458 
L 267.105333 -160.457545 
L 266.019532 -189.124862 
L 264.933731 -143.541396 
L 263.847929 -175.566679 
L 262.762128 -175.697155 
L 261.676327 -158.735979 
L 260.590526 -153.275192 
L 259.504725 -158.36593 
L 258.418924 -160.062058 
L 257.333123 -167.028055 
L 256.247321 -166.925268 
L 255.16152 -155.752473 
L 254.075719 -155.114864 
L 252.989918 -164.375421 
L 251.904117 -161.088664 
L 250.818316 -147.302643 
L 249.732514 -166.487772 
L 248.646713 -154.844317 
L 247.560912 -152.099043 
L 246.475111 -148.344502 
L 245.38931 -155.325126 
L 244.303509 -157.122431 
L 243.217708 -165.51453 
L 242.131906 -180.618277 
L 241.046105 -162.933918 
L 239.960304 -165.364541 
L 238.874503 -161.338692 
L 237.788702 -152.736086 
L 236.702901 -162.050275 
L 235.617099 -174.908125 
L 234.531298 -166.635735 
L 233.445497 -159.464156 
L 232.359696 -173.950754 
L 231.273895 -149.103585 
L 230.188094 -169.176798 
L 229.102292 -170.679779 
L 228.016491 -167.886953 
L 226.93069 -156.651234 
L 225.844889 -175.004505 
L 224.759088 -167.722456 
L 223.673287 -168.102274 
L 222.587486 -151.13101 
L 221.501684 -161.403397 
L 220.415883 -165.000855 
L 219.330082 -163.752669 
L 218.244281 -153.266653 
L 217.15848 -153.578122 
L 216.072679 -158.353956 
L 214.986877 -155.747086 
L 213.901076 -157.098573 
L 212.815275 -186.769986 
L 211.729474 -178.357211 
L 210.643673 -169.942602 
L 209.557872 -163.124866 
L 208.472071 -173.294391 
L 207.386269 -163.180726 
L 206.300468 -160.223642 
L 205.214667 -145.768084 
L 204.128866 -156.107278 
L 203.043065 -154.236445 
L 201.957264 -159.796152 
L 200.871462 -154.719623 
L 199.785661 -177.943506 
L 198.69986 -161.631414 
L 197.614059 -139.67319 
L 196.528258 -142.73479 
L 195.442457 -162.32884 
L 194.356656 -145.5628 
L 193.270854 -170.572186 
L 192.185053 -158.479834 
L 191.099252 -157.403917 
L 190.013451 -153.791051 
L 188.92765 -152.161818 
L 187.841849 -160.375911 
L 186.756047 -156.489725 
L 185.670246 -147.084834 
L 184.584445 -141.998186 
L 183.498644 -151.097972 
L 182.412843 -153.330784 
L 181.327042 -144.144552 
L 180.24124 -162.335471 
L 179.155439 -137.724516 
L 178.069638 -142.143169 
L 176.983837 -148.175199 
L 175.898036 -163.190428 
L 174.812235 -139.003794 
L 173.726434 -133.954834 
L 172.640632 -139.388455 
L 171.554831 -139.123227 
L 170.46903 -129.185176 
L 169.383229 -128.519149 
L 168.297428 -138.553348 
L 167.211627 -122.670646 
L 166.125825 -131.617178 
L 165.040024 -117.57268 
L 163.954223 -120.344651 
L 162.868422 -135.327855 
L 161.782621 -115.257295 
L 160.69682 -124.197359 
L 159.611019 -119.90822 
L 158.525217 -122.240135 
L 157.439416 -130.930481 
L 156.353615 -101.477425 
L 155.267814 -125.286308 
L 154.182013 -109.59369 
L 153.096212 -90.817486 
L 152.01041 -100.634417 
L 150.924609 -75.987878 
L 149.838808 -80.461323 
L 148.753007 -84.258194 
L 147.667206 -74.767347 
L 146.581405 -83.03504 
L 145.495604 -72.469398 
L 144.409802 -70.226321 
L 143.324001 -75.675176 
L 142.2382 -73.708001 
L 141.152399 -72.873982 
L 140.066598 -62.174233 
L 138.980797 -65.526432 
L 137.894995 -68.44266 
L 136.809194 -69.769374 
L 135.723393 -68.231274 
L 134.637592 -68.595927 
L 133.551791 -58.111989 
L 132.46599 -61.057107 
L 131.380189 -59.922932 
L 130.294387 -63.230276 
L 129.208586 -62.61451 
L 128.122785 -59.510883 
L 127.036984 -54.897985 
L 125.951183 -61.234657 
L 124.865382 -61.507722 
L 123.77958 -65.206519 
L 122.693779 -67.296776 
L 121.607978 -63.048066 
L 120.522177 -52.488256 
L 119.436376 -60.884614 
L 118.350575 -59.119474 
L 117.264773 -59.454455 
L 116.178972 -59.18019 
L 115.093171 -51.45896 
L 114.00737 -59.952255 
L 112.921569 -50.112 
L 111.835768 -63.138626 
L 110.749967 -64.023904 
L 109.664165 -66.552446 
L 108.578364 -64.234617 
L 107.492563 -63.981842 
L 106.406762 -64.680638 
L 105.320961 -65.840658 
L 104.23516 -64.941381 
L 103.149358 -64.10427 
L 102.063557 -66.18729 
L 100.977756 -63.61215 
L 99.891955 -66.850117 
L 98.806154 -61.978066 
L 97.720353 -64.668388 
L 96.634552 -66.491787 
L 95.54875 -65.701619 
L 94.462949 -65.052353 
L 93.377148 -68.460988 
L 92.291347 -67.587148 
L 91.205546 -66.308586 
L 90.119745 -64.43102 
L 89.033943 -66.712613 
L 87.948142 -63.136467 
L 86.862341 -67.937034 
L 85.77654 -67.251504 
L 84.690739 -66.491763 
L 83.604938 -63.732598 
L 82.519137 -66.069928 
L 81.433335 -67.241558 
L 80.347534 -67.029829 
L 79.261733 -66.520727 
L 78.175932 -66.275347 
L 77.090131 -67.180382 
L 76.00433 -66.068779 
L 74.918528 -68.55204 
L 73.832727 -65.633652 
z
" style="stroke: #0000ff; stroke-opacity: 0.3"/>
    </defs>
    <g clip-path="url(#pa17d5f63a8)">
     <use xlink:href="#m2023e1ccfb" x="0" y="345.6" style="fill: #0000ff; fill-opacity: 0.3; stroke: #0000ff; stroke-opacity: 0.3"/>
    </g>
   </g>
   <g id="matplotlib.axis_1">
    <g id="xtick_1">
     <g id="line2d_1">
      <defs>
       <path id="m9b8cb71df9" d="M 0 0 
L 0 3.5 
" style="stroke: #000000; stroke-width: 0.8"/>
      </defs>
      <g>
       <use xlink:href="#m9b8cb71df9" x="73.832727" y="307.584" style="stroke: #000000; stroke-width: 0.8"/>
      </g>
     </g>
     <g id="text_1">
      <!-- 0 -->
      <g transform="translate(70.651477 322.182437) scale(0.1 -0.1)">
       <defs>
        <path id="DejaVuSans-30" d="M 2034 4250 
Q 1547 4250 1301 3770 
Q 1056 3291 1056 2328 
Q 1056 1369 1301 889 
Q 1547 409 2034 409 
Q 2525 409 2770 889 
Q 3016 1369 3016 2328 
Q 3016 3291 2770 3770 
Q 2525 4250 2034 4250 
z
M 2034 4750 
Q 2819 4750 3233 4129 
Q 3647 3509 3647 2328 
Q 3647 1150 3233 529 
Q 2819 -91 2034 -91 
Q 1250 -91 836 529 
Q 422 1150 422 2328 
Q 422 3509 836 4129 
Q 1250 4750 2034 4750 
z
" transform="scale(0.015625)"/>
       </defs>
       <use xlink:href="#DejaVuSans-30"/>
      </g>
     </g>
    </g>
    <g id="xtick_2">
     <g id="line2d_2">
      <g>
       <use xlink:href="#m9b8cb71df9" x="128.122785" y="307.584" style="stroke: #000000; stroke-width: 0.8"/>
      </g>
     </g>
     <g id="text_2">
      <!-- 50 -->
      <g transform="translate(121.760285 322.182437) scale(0.1 -0.1)">
       <defs>
        <path id="DejaVuSans-35" d="M 691 4666 
L 3169 4666 
L 3169 4134 
L 1269 4134 
L 1269 2991 
Q 1406 3038 1543 3061 
Q 1681 3084 1819 3084 
Q 2600 3084 3056 2656 
Q 3513 2228 3513 1497 
Q 3513 744 3044 326 
Q 2575 -91 1722 -91 
Q 1428 -91 1123 -41 
Q 819 9 494 109 
L 494 744 
Q 775 591 1075 516 
Q 1375 441 1709 441 
Q 2250 441 2565 725 
Q 2881 1009 2881 1497 
Q 2881 1984 2565 2268 
Q 2250 2553 1709 2553 
Q 1456 2553 1204 2497 
Q 953 2441 691 2322 
L 691 4666 
z
" transform="scale(0.015625)"/>
       </defs>
       <use xlink:href="#DejaVuSans-35"/>
       <use xlink:href="#DejaVuSans-30" x="63.623047"/>
      </g>
     </g>
    </g>
    <g id="xtick_3">
     <g id="line2d_3">
      <g>
       <use xlink:href="#m9b8cb71df9" x="182.412843" y="307.584" style="stroke: #000000; stroke-width: 0.8"/>
      </g>
     </g>
     <g id="text_3">
      <!-- 100 -->
      <g transform="translate(172.869093 322.182437) scale(0.1 -0.1)">
       <defs>
        <path id="DejaVuSans-31" d="M 794 531 
L 1825 531 
L 1825 4091 
L 703 3866 
L 703 4441 
L 1819 4666 
L 2450 4666 
L 2450 531 
L 3481 531 
L 3481 0 
L 794 0 
L 794 531 
z
" transform="scale(0.015625)"/>
       </defs>
       <use xlink:href="#DejaVuSans-31"/>
       <use xlink:href="#DejaVuSans-30" x="63.623047"/>
       <use xlink:href="#DejaVuSans-30" x="127.246094"/>
      </g>
     </g>
    </g>
    <g id="xtick_4">
     <g id="line2d_4">
      <g>
       <use xlink:href="#m9b8cb71df9" x="236.702901" y="307.584" style="stroke: #000000; stroke-width: 0.8"/>
      </g>
     </g>
     <g id="text_4">
      <!-- 150 -->
      <g transform="translate(227.159151 322.182437) scale(0.1 -0.1)">
       <use xlink:href="#DejaVuSans-31"/>
       <use xlink:href="#DejaVuSans-35" x="63.623047"/>
       <use xlink:href="#DejaVuSans-30" x="127.246094"/>
      </g>
     </g>
    </g>
    <g id="xtick_5">
     <g id="line2d_5">
      <g>
       <use xlink:href="#m9b8cb71df9" x="290.992958" y="307.584" style="stroke: #000000; stroke-width: 0.8"/>
      </g>
     </g>
     <g id="text_5">
      <!-- 200 -->
      <g transform="translate(281.449208 322.182437) scale(0.1 -0.1)">
       <defs>
        <path id="DejaVuSans-32" d="M 1228 531 
L 3431 531 
L 3431 0 
L 469 0 
L 469 531 
Q 828 903 1448 1529 
Q 2069 2156 2228 2338 
Q 2531 2678 2651 2914 
Q 2772 3150 2772 3378 
Q 2772 3750 2511 3984 
Q 2250 4219 1831 4219 
Q 1534 4219 1204 4116 
Q 875 4013 500 3803 
L 500 4441 
Q 881 4594 1212 4672 
Q 1544 4750 1819 4750 
Q 2544 4750 2975 4387 
Q 3406 4025 3406 3419 
Q 3406 3131 3298 2873 
Q 3191 2616 2906 2266 
Q 2828 2175 2409 1742 
Q 1991 1309 1228 531 
z
" transform="scale(0.015625)"/>
       </defs>
       <use xlink:href="#DejaVuSans-32"/>
       <use xlink:href="#DejaVuSans-30" x="63.623047"/>
       <use xlink:href="#DejaVuSans-30" x="127.246094"/>
      </g>
     </g>
    </g>
    <g id="xtick_6">
     <g id="line2d_6">
      <g>
       <use xlink:href="#m9b8cb71df9" x="345.283016" y="307.584" style="stroke: #000000; stroke-width: 0.8"/>
      </g>
     </g>
     <g id="text_6">
      <!-- 250 -->
      <g transform="translate(335.739266 322.182437) scale(0.1 -0.1)">
       <use xlink:href="#DejaVuSans-32"/>
       <use xlink:href="#DejaVuSans-35" x="63.623047"/>
       <use xlink:href="#DejaVuSans-30" x="127.246094"/>
      </g>
     </g>
    </g>
    <g id="xtick_7">
     <g id="line2d_7">
      <g>
       <use xlink:href="#m9b8cb71df9" x="399.573074" y="307.584" style="stroke: #000000; stroke-width: 0.8"/>
      </g>
     </g>
     <g id="text_7">
      <!-- 300 -->
      <g transform="translate(390.029324 322.182437) scale(0.1 -0.1)">
       <defs>
        <path id="DejaVuSans-33" d="M 2597 2516 
Q 3050 2419 3304 2112 
Q 3559 1806 3559 1356 
Q 3559 666 3084 287 
Q 2609 -91 1734 -91 
Q 1441 -91 1130 -33 
Q 819 25 488 141 
L 488 750 
Q 750 597 1062 519 
Q 1375 441 1716 441 
Q 2309 441 2620 675 
Q 2931 909 2931 1356 
Q 2931 1769 2642 2001 
Q 2353 2234 1838 2234 
L 1294 2234 
L 1294 2753 
L 1863 2753 
Q 2328 2753 2575 2939 
Q 2822 3125 2822 3475 
Q 2822 3834 2567 4026 
Q 2313 4219 1838 4219 
Q 1578 4219 1281 4162 
Q 984 4106 628 3988 
L 628 4550 
Q 988 4650 1302 4700 
Q 1616 4750 1894 4750 
Q 2613 4750 3031 4423 
Q 3450 4097 3450 3541 
Q 3450 3153 3228 2886 
Q 3006 2619 2597 2516 
z
" transform="scale(0.015625)"/>
       </defs>
       <use xlink:href="#DejaVuSans-33"/>
       <use xlink:href="#DejaVuSans-30" x="63.623047"/>
       <use xlink:href="#DejaVuSans-30" x="127.246094"/>
      </g>
     </g>
    </g>
    <g id="text_8">
     <!-- episode -->
     <g transform="translate(216.605312 335.860562) scale(0.1 -0.1)">
      <defs>
       <path id="DejaVuSans-65" d="M 3597 1894 
L 3597 1613 
L 953 1613 
Q 991 1019 1311 708 
Q 1631 397 2203 397 
Q 2534 397 2845 478 
Q 3156 559 3463 722 
L 3463 178 
Q 3153 47 2828 -22 
Q 2503 -91 2169 -91 
Q 1331 -91 842 396 
Q 353 884 353 1716 
Q 353 2575 817 3079 
Q 1281 3584 2069 3584 
Q 2775 3584 3186 3129 
Q 3597 2675 3597 1894 
z
M 3022 2063 
Q 3016 2534 2758 2815 
Q 2500 3097 2075 3097 
Q 1594 3097 1305 2825 
Q 1016 2553 972 2059 
L 3022 2063 
z
" transform="scale(0.015625)"/>
       <path id="DejaVuSans-70" d="M 1159 525 
L 1159 -1331 
L 581 -1331 
L 581 3500 
L 1159 3500 
L 1159 2969 
Q 1341 3281 1617 3432 
Q 1894 3584 2278 3584 
Q 2916 3584 3314 3078 
Q 3713 2572 3713 1747 
Q 3713 922 3314 415 
Q 2916 -91 2278 -91 
Q 1894 -91 1617 61 
Q 1341 213 1159 525 
z
M 3116 1747 
Q 3116 2381 2855 2742 
Q 2594 3103 2138 3103 
Q 1681 3103 1420 2742 
Q 1159 2381 1159 1747 
Q 1159 1113 1420 752 
Q 1681 391 2138 391 
Q 2594 391 2855 752 
Q 3116 1113 3116 1747 
z
" transform="scale(0.015625)"/>
       <path id="DejaVuSans-69" d="M 603 3500 
L 1178 3500 
L 1178 0 
L 603 0 
L 603 3500 
z
M 603 4863 
L 1178 4863 
L 1178 4134 
L 603 4134 
L 603 4863 
z
" transform="scale(0.015625)"/>
       <path id="DejaVuSans-73" d="M 2834 3397 
L 2834 2853 
Q 2591 2978 2328 3040 
Q 2066 3103 1784 3103 
Q 1356 3103 1142 2972 
Q 928 2841 928 2578 
Q 928 2378 1081 2264 
Q 1234 2150 1697 2047 
L 1894 2003 
Q 2506 1872 2764 1633 
Q 3022 1394 3022 966 
Q 3022 478 2636 193 
Q 2250 -91 1575 -91 
Q 1294 -91 989 -36 
Q 684 19 347 128 
L 347 722 
Q 666 556 975 473 
Q 1284 391 1588 391 
Q 1994 391 2212 530 
Q 2431 669 2431 922 
Q 2431 1156 2273 1281 
Q 2116 1406 1581 1522 
L 1381 1569 
Q 847 1681 609 1914 
Q 372 2147 372 2553 
Q 372 3047 722 3315 
Q 1072 3584 1716 3584 
Q 2034 3584 2315 3537 
Q 2597 3491 2834 3397 
z
" transform="scale(0.015625)"/>
       <path id="DejaVuSans-6f" d="M 1959 3097 
Q 1497 3097 1228 2736 
Q 959 2375 959 1747 
Q 959 1119 1226 758 
Q 1494 397 1959 397 
Q 2419 397 2687 759 
Q 2956 1122 2956 1747 
Q 2956 2369 2687 2733 
Q 2419 3097 1959 3097 
z
M 1959 3584 
Q 2709 3584 3137 3096 
Q 3566 2609 3566 1747 
Q 3566 888 3137 398 
Q 2709 -91 1959 -91 
Q 1206 -91 779 398 
Q 353 888 353 1747 
Q 353 2609 779 3096 
Q 1206 3584 1959 3584 
z
" transform="scale(0.015625)"/>
       <path id="DejaVuSans-64" d="M 2906 2969 
L 2906 4863 
L 3481 4863 
L 3481 0 
L 2906 0 
L 2906 525 
Q 2725 213 2448 61 
Q 2172 -91 1784 -91 
Q 1150 -91 751 415 
Q 353 922 353 1747 
Q 353 2572 751 3078 
Q 1150 3584 1784 3584 
Q 2172 3584 2448 3432 
Q 2725 3281 2906 2969 
z
M 947 1747 
Q 947 1113 1208 752 
Q 1469 391 1925 391 
Q 2381 391 2643 752 
Q 2906 1113 2906 1747 
Q 2906 2381 2643 2742 
Q 2381 3103 1925 3103 
Q 1469 3103 1208 2742 
Q 947 2381 947 1747 
z
" transform="scale(0.015625)"/>
      </defs>
      <use xlink:href="#DejaVuSans-65"/>
      <use xlink:href="#DejaVuSans-70" x="61.523438"/>
      <use xlink:href="#DejaVuSans-69" x="125"/>
      <use xlink:href="#DejaVuSans-73" x="152.783203"/>
      <use xlink:href="#DejaVuSans-6f" x="204.882812"/>
      <use xlink:href="#DejaVuSans-64" x="266.064453"/>
      <use xlink:href="#DejaVuSans-65" x="329.541016"/>
     </g>
    </g>
   </g>
   <g id="matplotlib.axis_2">
    <g id="ytick_1">
     <g id="line2d_8">
      <defs>
       <path id="m7d242e3abf" d="M 0 0 
L -3.5 0 
" style="stroke: #000000; stroke-width: 0.8"/>
      </defs>
      <g>
       <use xlink:href="#m7d242e3abf" x="57.6" y="284.530639" style="stroke: #000000; stroke-width: 0.8"/>
      </g>
     </g>
     <g id="text_9">
      <!-- 0 -->
      <g transform="translate(44.2375 288.329858) scale(0.1 -0.1)">
       <use xlink:href="#DejaVuSans-30"/>
      </g>
     </g>
    </g>
    <g id="ytick_2">
     <g id="line2d_9">
      <g>
       <use xlink:href="#m7d242e3abf" x="57.6" y="235.699416" style="stroke: #000000; stroke-width: 0.8"/>
      </g>
     </g>
     <g id="text_10">
      <!-- 100 -->
      <g transform="translate(31.5125 239.498635) scale(0.1 -0.1)">
       <use xlink:href="#DejaVuSans-31"/>
       <use xlink:href="#DejaVuSans-30" x="63.623047"/>
       <use xlink:href="#DejaVuSans-30" x="127.246094"/>
      </g>
     </g>
    </g>
    <g id="ytick_3">
     <g id="line2d_10">
      <g>
       <use xlink:href="#m7d242e3abf" x="57.6" y="186.868193" style="stroke: #000000; stroke-width: 0.8"/>
      </g>
     </g>
     <g id="text_11">
      <!-- 200 -->
      <g transform="translate(31.5125 190.667412) scale(0.1 -0.1)">
       <use xlink:href="#DejaVuSans-32"/>
       <use xlink:href="#DejaVuSans-30" x="63.623047"/>
       <use xlink:href="#DejaVuSans-30" x="127.246094"/>
      </g>
     </g>
    </g>
    <g id="ytick_4">
     <g id="line2d_11">
      <g>
       <use xlink:href="#m7d242e3abf" x="57.6" y="138.03697" style="stroke: #000000; stroke-width: 0.8"/>
      </g>
     </g>
     <g id="text_12">
      <!-- 300 -->
      <g transform="translate(31.5125 141.836189) scale(0.1 -0.1)">
       <use xlink:href="#DejaVuSans-33"/>
       <use xlink:href="#DejaVuSans-30" x="63.623047"/>
       <use xlink:href="#DejaVuSans-30" x="127.246094"/>
      </g>
     </g>
    </g>
    <g id="ytick_5">
     <g id="line2d_12">
      <g>
       <use xlink:href="#m7d242e3abf" x="57.6" y="89.205747" style="stroke: #000000; stroke-width: 0.8"/>
      </g>
     </g>
     <g id="text_13">
      <!-- 400 -->
      <g transform="translate(31.5125 93.004966) scale(0.1 -0.1)">
       <defs>
        <path id="DejaVuSans-34" d="M 2419 4116 
L 825 1625 
L 2419 1625 
L 2419 4116 
z
M 2253 4666 
L 3047 4666 
L 3047 1625 
L 3713 1625 
L 3713 1100 
L 3047 1100 
L 3047 0 
L 2419 0 
L 2419 1100 
L 313 1100 
L 313 1709 
L 2253 4666 
z
" transform="scale(0.015625)"/>
       </defs>
       <use xlink:href="#DejaVuSans-34"/>
       <use xlink:href="#DejaVuSans-30" x="63.623047"/>
       <use xlink:href="#DejaVuSans-30" x="127.246094"/>
      </g>
     </g>
    </g>
    <g id="text_14">
     <!-- return -->
     <g transform="translate(25.432812 189.813156) rotate(-90) scale(0.1 -0.1)">
      <defs>
       <path id="DejaVuSans-72" d="M 2631 2963 
Q 2534 3019 2420 3045 
Q 2306 3072 2169 3072 
Q 1681 3072 1420 2755 
Q 1159 2438 1159 1844 
L 1159 0 
L 581 0 
L 581 3500 
L 1159 3500 
L 1159 2956 
Q 1341 3275 1631 3429 
Q 1922 3584 2338 3584 
Q 2397 3584 2469 3576 
Q 2541 3569 2628 3553 
L 2631 2963 
z
" transform="scale(0.015625)"/>
       <path id="DejaVuSans-74" d="M 1172 4494 
L 1172 3500 
L 2356 3500 
L 2356 3053 
L 1172 3053 
L 1172 1153 
Q 1172 725 1289 603 
Q 1406 481 1766 481 
L 2356 481 
L 2356 0 
L 1766 0 
Q 1100 0 847 248 
Q 594 497 594 1153 
L 594 3053 
L 172 3053 
L 172 3500 
L 594 3500 
L 594 4494 
L 1172 4494 
z
" transform="scale(0.015625)"/>
       <path id="DejaVuSans-75" d="M 544 1381 
L 544 3500 
L 1119 3500 
L 1119 1403 
Q 1119 906 1312 657 
Q 1506 409 1894 409 
Q 2359 409 2629 706 
Q 2900 1003 2900 1516 
L 2900 3500 
L 3475 3500 
L 3475 0 
L 2900 0 
L 2900 538 
Q 2691 219 2414 64 
Q 2138 -91 1772 -91 
Q 1169 -91 856 284 
Q 544 659 544 1381 
z
M 1991 3584 
L 1991 3584 
z
" transform="scale(0.015625)"/>
       <path id="DejaVuSans-6e" d="M 3513 2113 
L 3513 0 
L 2938 0 
L 2938 2094 
Q 2938 2591 2744 2837 
Q 2550 3084 2163 3084 
Q 1697 3084 1428 2787 
Q 1159 2491 1159 1978 
L 1159 0 
L 581 0 
L 581 3500 
L 1159 3500 
L 1159 2956 
Q 1366 3272 1645 3428 
Q 1925 3584 2291 3584 
Q 2894 3584 3203 3211 
Q 3513 2838 3513 2113 
z
" transform="scale(0.015625)"/>
      </defs>
      <use xlink:href="#DejaVuSans-72"/>
      <use xlink:href="#DejaVuSans-65" x="38.863281"/>
      <use xlink:href="#DejaVuSans-74" x="100.386719"/>
      <use xlink:href="#DejaVuSans-75" x="139.595703"/>
      <use xlink:href="#DejaVuSans-72" x="202.974609"/>
      <use xlink:href="#DejaVuSans-6e" x="242.337891"/>
     </g>
    </g>
   </g>
   <g id="line2d_13">
    <path d="M 73.832727 272.56699 
L 74.918528 271.053222 
L 76.00433 273.348289 
L 77.090131 274.813226 
L 78.175932 274.17842 
L 79.261733 274.520239 
L 80.347534 275.496863 
L 81.433335 274.617901 
L 82.519137 274.959719 
L 83.604938 273.641277 
L 84.690739 274.520239 
L 85.77654 273.250627 
L 87.948142 272.664653 
L 89.033943 274.715563 
L 90.119745 274.520239 
L 91.205546 272.908809 
L 92.291347 274.227251 
L 93.377148 274.324914 
L 94.462949 275.155044 
L 95.54875 276.912968 
L 96.634552 273.836602 
L 97.720353 276.131669 
L 98.806154 271.883353 
L 99.891955 275.985175 
L 100.977756 276.082838 
L 102.063557 276.375825 
L 103.149358 274.959719 
L 104.23516 276.1805 
L 105.320961 276.375825 
L 106.406762 272.615821 
L 107.492563 275.203876 
L 108.578364 273.055302 
L 109.664165 273.836602 
L 110.749967 265.779449 
L 111.835768 270.662572 
L 112.921569 263.679707 
L 114.00737 269.588285 
L 115.093171 265.046981 
L 116.178972 269.832441 
L 117.264773 270.516078 
L 118.350575 268.513999 
L 119.436376 263.191394 
L 120.522177 263.484383 
L 121.607978 264.461007 
L 122.693779 269.78361 
L 123.77958 271.297378 
L 124.865382 270.95556 
L 125.951183 265.535293 
L 127.036984 251.86255 
L 128.122785 259.382559 
L 129.208586 256.550349 
L 130.294387 257.087492 
L 131.380189 262.898408 
L 132.46599 249.46982 
L 133.551791 252.93684 
L 134.637592 253.571643 
L 135.723393 255.231906 
L 136.809194 260.115028 
L 137.894995 256.25736 
L 138.980797 255.134243 
L 140.066598 242.828774 
L 142.2382 220.512903 
L 143.324001 221.538362 
L 144.409802 213.285888 
L 145.495604 215.727449 
L 146.581405 211.527961 
L 147.667206 198.978338 
L 148.753007 201.859377 
L 149.838808 200.345614 
L 150.924609 213.090559 
L 152.01041 174.855709 
L 153.096212 206.010031 
L 154.182013 191.263003 
L 155.267814 166.993887 
L 156.353615 181.985071 
L 157.439416 155.127898 
L 158.525217 172.072331 
L 159.611019 157.276469 
L 160.69682 169.63077 
L 161.782621 171.291036 
L 162.868422 161.231801 
L 163.954223 156.006854 
L 165.040024 161.768948 
L 166.125825 159.864525 
L 167.211627 158.936728 
L 168.297428 144.922176 
L 169.383229 154.444264 
L 170.46903 154.39543 
L 171.554831 144.189707 
L 172.640632 155.713879 
L 173.726434 151.709713 
L 174.812235 146.387112 
L 175.898036 126.805789 
L 176.983837 138.867107 
L 178.069638 145.508141 
L 179.155439 145.996454 
L 180.24124 131.249433 
L 181.327042 143.896717 
L 182.412843 138.525282 
L 183.498644 139.111263 
L 184.584445 146.045288 
L 185.670246 133.153848 
L 186.756047 134.374629 
L 187.841849 137.10918 
L 188.92765 138.622951 
L 190.013451 136.523199 
L 191.099252 140.332044 
L 192.185053 139.550741 
L 193.270854 125.585008 
L 194.356656 146.045288 
L 195.442457 134.716453 
L 196.528258 144.824507 
L 197.614059 150.537766 
L 198.69986 135.253585 
L 199.785661 117.479022 
L 200.871462 135.497741 
L 201.957264 133.05618 
L 203.043065 136.913858 
L 204.128866 132.909692 
L 205.214667 153.125815 
L 206.300468 127.147613 
L 207.386269 127.147613 
L 208.472071 124.266559 
L 209.557872 125.14553 
L 210.643673 126.463964 
L 211.729474 114.109671 
L 212.815275 106.199007 
L 213.901076 140.185541 
L 214.986877 137.158014 
L 216.072679 138.085804 
L 217.15848 132.030736 
L 218.244281 138.720604 
L 219.330082 128.173057 
L 220.415883 122.264491 
L 221.501684 132.079555 
L 222.587486 150.049454 
L 223.673287 122.459813 
L 224.759088 123.875916 
L 225.844889 116.258242 
L 226.93069 128.368394 
L 228.016491 123.192281 
L 229.102292 131.249433 
L 230.188094 125.877999 
L 231.273895 137.597492 
L 232.359696 115.330452 
L 233.445497 131.347087 
L 235.617099 119.82293 
L 236.702901 134.081638 
L 237.788702 144.824507 
L 238.874503 136.376712 
L 239.960304 135.448921 
L 241.046105 138.867107 
L 242.131906 110.447329 
L 243.217708 134.130472 
L 244.303509 136.279043 
L 245.38931 137.890483 
L 246.475111 142.675936 
L 247.560912 139.746063 
L 248.646713 128.124238 
L 249.732514 122.410979 
L 250.818316 131.688911 
L 251.904117 133.837482 
L 252.989918 131.151765 
L 254.075719 143.213083 
L 255.16152 128.221891 
L 256.247321 132.030736 
L 257.333123 134.56995 
L 258.418924 133.93515 
L 259.504725 135.937234 
L 260.590526 142.041137 
L 261.676327 123.387603 
L 262.762128 118.992793 
L 263.847929 116.258242 
L 264.933731 141.308668 
L 266.019532 109.714861 
L 267.105333 134.521116 
L 268.191134 135.351253 
L 269.276935 134.716453 
L 270.362736 133.93515 
L 271.448538 125.340852 
L 272.534339 132.860858 
L 273.62014 137.74398 
L 274.705941 131.102931 
L 275.791742 135.400087 
L 276.877543 125.78033 
L 277.963344 133.837482 
L 279.049146 130.272809 
L 280.134947 133.105014 
L 281.220748 128.02657 
L 282.306549 133.105014 
L 283.39235 130.419296 
L 284.478151 131.933067 
L 285.563953 131.395921 
L 286.649754 122.459813 
L 287.735555 136.18139 
L 288.821356 142.920093 
L 289.907157 144.629185 
L 290.992958 132.958526 
L 292.07876 145.361654 
L 293.164561 138.964761 
L 294.250362 123.973584 
L 295.336163 133.251516 
L 296.421964 131.737745 
L 297.507765 136.327877 
L 298.593566 129.345019 
L 299.679368 123.582925 
L 300.765169 145.654644 
L 301.85097 122.752803 
L 302.936771 138.574117 
L 305.108373 148.438015 
L 306.194175 145.8988 
L 307.279976 123.827081 
L 308.365777 145.459322 
L 309.451578 140.966844 
L 310.537379 140.673853 
L 311.62318 151.905035 
L 312.708981 139.843731 
L 313.794783 140.283209 
L 314.880584 124.266559 
L 315.966385 135.888399 
L 317.052186 134.27696 
L 318.137987 144.629185 
L 319.223788 137.695146 
L 320.30959 142.236458 
L 321.395391 143.457239 
L 322.481192 143.261917 
L 323.566993 127.538257 
L 324.652794 141.748146 
L 325.738595 144.531517 
L 326.824396 154.639586 
L 327.910198 135.595409 
L 328.995999 145.068663 
L 330.0818 143.701395 
L 331.167601 144.775673 
L 332.253402 147.510225 
L 333.339203 151.172566 
L 334.425005 142.041137 
L 335.510806 135.155931 
L 336.596607 148.096205 
L 337.682408 138.03697 
L 338.768209 143.359571 
L 339.85401 143.359571 
L 340.939811 154.444264 
L 342.025613 145.459322 
L 343.111414 143.115414 
L 344.197215 133.544492 
L 345.283016 146.631268 
L 346.368817 139.599575 
L 347.454618 129.24735 
L 348.54042 133.34917 
L 349.626221 133.446838 
L 350.712022 148.828674 
L 351.797823 134.618785 
L 352.883624 150.391264 
L 353.969425 148.242693 
L 355.055227 153.174649 
L 356.141028 153.369971 
L 357.226829 143.164249 
L 358.31263 156.25101 
L 359.398431 145.849966 
L 360.484232 148.633352 
L 361.570033 143.359571 
L 362.655835 141.8458 
L 363.741636 156.836991 
L 364.827437 149.414639 
L 365.913238 151.123732 
L 366.999039 137.890483 
L 368.08484 140.234375 
L 369.170642 140.5762 
L 370.256443 143.799049 
L 371.342244 150.440098 
L 372.428045 154.541918 
L 373.513846 127.098779 
L 374.599647 147.803215 
L 375.685448 142.627102 
L 376.77125 152.051537 
L 377.857051 156.93466 
L 378.942852 143.017761 
L 380.028653 149.658795 
L 381.114454 153.321137 
L 382.200255 152.491015 
L 383.286057 164.942977 
L 384.371858 133.788648 
L 385.457659 154.297762 
L 386.54346 139.355419 
L 387.629261 142.382946 
L 388.715062 141.211 
L 389.800863 154.737254 
L 390.886665 160.645828 
L 391.972466 153.565293 
L 393.058267 152.735171 
L 394.144068 145.410488 
L 395.229869 154.541918 
L 396.31567 158.936728 
L 397.401472 150.391264 
L 398.487273 154.346596 
L 398.487273 154.346596 
" clip-path="url(#pa17d5f63a8)" style="fill: none; stroke: #1f77b4; stroke-width: 1.5; stroke-linecap: square"/>
   </g>
   <g id="line2d_14">
    <path d="M 57.6 235.699416 
L 414.72 235.699416 
" clip-path="url(#pa17d5f63a8)" style="fill: none; stroke-dasharray: 5.55,2.4; stroke-dashoffset: 0; stroke: #ff0000; stroke-width: 1.5"/>
   </g>
   <g id="patch_3">
    <path d="M 57.6 307.584 
L 57.6 41.472 
" style="fill: none; stroke: #000000; stroke-width: 0.8; stroke-linejoin: miter; stroke-linecap: square"/>
   </g>
   <g id="patch_4">
    <path d="M 414.72 307.584 
L 414.72 41.472 
" style="fill: none; stroke: #000000; stroke-width: 0.8; stroke-linejoin: miter; stroke-linecap: square"/>
   </g>
   <g id="patch_5">
    <path d="M 57.6 307.584 
L 414.72 307.584 
" style="fill: none; stroke: #000000; stroke-width: 0.8; stroke-linejoin: miter; stroke-linecap: square"/>
   </g>
   <g id="patch_6">
    <path d="M 57.6 41.472 
L 414.72 41.472 
" style="fill: none; stroke: #000000; stroke-width: 0.8; stroke-linejoin: miter; stroke-linecap: square"/>
   </g>
   <g id="text_15">
    <!-- Learning curve: return vs episode number during training (10 runs) -->
    <g transform="translate(34.100625 35.472) scale(0.12 -0.12)">
     <defs>
      <path id="DejaVuSans-4c" d="M 628 4666 
L 1259 4666 
L 1259 531 
L 3531 531 
L 3531 0 
L 628 0 
L 628 4666 
z
" transform="scale(0.015625)"/>
      <path id="DejaVuSans-61" d="M 2194 1759 
Q 1497 1759 1228 1600 
Q 959 1441 959 1056 
Q 959 750 1161 570 
Q 1363 391 1709 391 
Q 2188 391 2477 730 
Q 2766 1069 2766 1631 
L 2766 1759 
L 2194 1759 
z
M 3341 1997 
L 3341 0 
L 2766 0 
L 2766 531 
Q 2569 213 2275 61 
Q 1981 -91 1556 -91 
Q 1019 -91 701 211 
Q 384 513 384 1019 
Q 384 1609 779 1909 
Q 1175 2209 1959 2209 
L 2766 2209 
L 2766 2266 
Q 2766 2663 2505 2880 
Q 2244 3097 1772 3097 
Q 1472 3097 1187 3025 
Q 903 2953 641 2809 
L 641 3341 
Q 956 3463 1253 3523 
Q 1550 3584 1831 3584 
Q 2591 3584 2966 3190 
Q 3341 2797 3341 1997 
z
" transform="scale(0.015625)"/>
      <path id="DejaVuSans-67" d="M 2906 1791 
Q 2906 2416 2648 2759 
Q 2391 3103 1925 3103 
Q 1463 3103 1205 2759 
Q 947 2416 947 1791 
Q 947 1169 1205 825 
Q 1463 481 1925 481 
Q 2391 481 2648 825 
Q 2906 1169 2906 1791 
z
M 3481 434 
Q 3481 -459 3084 -895 
Q 2688 -1331 1869 -1331 
Q 1566 -1331 1297 -1286 
Q 1028 -1241 775 -1147 
L 775 -588 
Q 1028 -725 1275 -790 
Q 1522 -856 1778 -856 
Q 2344 -856 2625 -561 
Q 2906 -266 2906 331 
L 2906 616 
Q 2728 306 2450 153 
Q 2172 0 1784 0 
Q 1141 0 747 490 
Q 353 981 353 1791 
Q 353 2603 747 3093 
Q 1141 3584 1784 3584 
Q 2172 3584 2450 3431 
Q 2728 3278 2906 2969 
L 2906 3500 
L 3481 3500 
L 3481 434 
z
" transform="scale(0.015625)"/>
      <path id="DejaVuSans-20" transform="scale(0.015625)"/>
      <path id="DejaVuSans-63" d="M 3122 3366 
L 3122 2828 
Q 2878 2963 2633 3030 
Q 2388 3097 2138 3097 
Q 1578 3097 1268 2742 
Q 959 2388 959 1747 
Q 959 1106 1268 751 
Q 1578 397 2138 397 
Q 2388 397 2633 464 
Q 2878 531 3122 666 
L 3122 134 
Q 2881 22 2623 -34 
Q 2366 -91 2075 -91 
Q 1284 -91 818 406 
Q 353 903 353 1747 
Q 353 2603 823 3093 
Q 1294 3584 2113 3584 
Q 2378 3584 2631 3529 
Q 2884 3475 3122 3366 
z
" transform="scale(0.015625)"/>
      <path id="DejaVuSans-76" d="M 191 3500 
L 800 3500 
L 1894 563 
L 2988 3500 
L 3597 3500 
L 2284 0 
L 1503 0 
L 191 3500 
z
" transform="scale(0.015625)"/>
      <path id="DejaVuSans-3a" d="M 750 794 
L 1409 794 
L 1409 0 
L 750 0 
L 750 794 
z
M 750 3309 
L 1409 3309 
L 1409 2516 
L 750 2516 
L 750 3309 
z
" transform="scale(0.015625)"/>
      <path id="DejaVuSans-6d" d="M 3328 2828 
Q 3544 3216 3844 3400 
Q 4144 3584 4550 3584 
Q 5097 3584 5394 3201 
Q 5691 2819 5691 2113 
L 5691 0 
L 5113 0 
L 5113 2094 
Q 5113 2597 4934 2840 
Q 4756 3084 4391 3084 
Q 3944 3084 3684 2787 
Q 3425 2491 3425 1978 
L 3425 0 
L 2847 0 
L 2847 2094 
Q 2847 2600 2669 2842 
Q 2491 3084 2119 3084 
Q 1678 3084 1418 2786 
Q 1159 2488 1159 1978 
L 1159 0 
L 581 0 
L 581 3500 
L 1159 3500 
L 1159 2956 
Q 1356 3278 1631 3431 
Q 1906 3584 2284 3584 
Q 2666 3584 2933 3390 
Q 3200 3197 3328 2828 
z
" transform="scale(0.015625)"/>
      <path id="DejaVuSans-62" d="M 3116 1747 
Q 3116 2381 2855 2742 
Q 2594 3103 2138 3103 
Q 1681 3103 1420 2742 
Q 1159 2381 1159 1747 
Q 1159 1113 1420 752 
Q 1681 391 2138 391 
Q 2594 391 2855 752 
Q 3116 1113 3116 1747 
z
M 1159 2969 
Q 1341 3281 1617 3432 
Q 1894 3584 2278 3584 
Q 2916 3584 3314 3078 
Q 3713 2572 3713 1747 
Q 3713 922 3314 415 
Q 2916 -91 2278 -91 
Q 1894 -91 1617 61 
Q 1341 213 1159 525 
L 1159 0 
L 581 0 
L 581 4863 
L 1159 4863 
L 1159 2969 
z
" transform="scale(0.015625)"/>
      <path id="DejaVuSans-28" d="M 1984 4856 
Q 1566 4138 1362 3434 
Q 1159 2731 1159 2009 
Q 1159 1288 1364 580 
Q 1569 -128 1984 -844 
L 1484 -844 
Q 1016 -109 783 600 
Q 550 1309 550 2009 
Q 550 2706 781 3412 
Q 1013 4119 1484 4856 
L 1984 4856 
z
" transform="scale(0.015625)"/>
      <path id="DejaVuSans-29" d="M 513 4856 
L 1013 4856 
Q 1481 4119 1714 3412 
Q 1947 2706 1947 2009 
Q 1947 1309 1714 600 
Q 1481 -109 1013 -844 
L 513 -844 
Q 928 -128 1133 580 
Q 1338 1288 1338 2009 
Q 1338 2731 1133 3434 
Q 928 4138 513 4856 
z
" transform="scale(0.015625)"/>
     </defs>
     <use xlink:href="#DejaVuSans-4c"/>
     <use xlink:href="#DejaVuSans-65" x="53.962891"/>
     <use xlink:href="#DejaVuSans-61" x="115.486328"/>
     <use xlink:href="#DejaVuSans-72" x="176.765625"/>
     <use xlink:href="#DejaVuSans-6e" x="216.128906"/>
     <use xlink:href="#DejaVuSans-69" x="279.507812"/>
     <use xlink:href="#DejaVuSans-6e" x="307.291016"/>
     <use xlink:href="#DejaVuSans-67" x="370.669922"/>
     <use xlink:href="#DejaVuSans-20" x="434.146484"/>
     <use xlink:href="#DejaVuSans-63" x="465.933594"/>
     <use xlink:href="#DejaVuSans-75" x="520.914062"/>
     <use xlink:href="#DejaVuSans-72" x="584.292969"/>
     <use xlink:href="#DejaVuSans-76" x="625.40625"/>
     <use xlink:href="#DejaVuSans-65" x="684.585938"/>
     <use xlink:href="#DejaVuSans-3a" x="746.109375"/>
     <use xlink:href="#DejaVuSans-20" x="779.800781"/>
     <use xlink:href="#DejaVuSans-72" x="811.587891"/>
     <use xlink:href="#DejaVuSans-65" x="850.451172"/>
     <use xlink:href="#DejaVuSans-74" x="911.974609"/>
     <use xlink:href="#DejaVuSans-75" x="951.183594"/>
     <use xlink:href="#DejaVuSans-72" x="1014.5625"/>
     <use xlink:href="#DejaVuSans-6e" x="1053.925781"/>
     <use xlink:href="#DejaVuSans-20" x="1117.304688"/>
     <use xlink:href="#DejaVuSans-76" x="1149.091797"/>
     <use xlink:href="#DejaVuSans-73" x="1208.271484"/>
     <use xlink:href="#DejaVuSans-20" x="1260.371094"/>
     <use xlink:href="#DejaVuSans-65" x="1292.158203"/>
     <use xlink:href="#DejaVuSans-70" x="1353.681641"/>
     <use xlink:href="#DejaVuSans-69" x="1417.158203"/>
     <use xlink:href="#DejaVuSans-73" x="1444.941406"/>
     <use xlink:href="#DejaVuSans-6f" x="1497.041016"/>
     <use xlink:href="#DejaVuSans-64" x="1558.222656"/>
     <use xlink:href="#DejaVuSans-65" x="1621.699219"/>
     <use xlink:href="#DejaVuSans-20" x="1683.222656"/>
     <use xlink:href="#DejaVuSans-6e" x="1715.009766"/>
     <use xlink:href="#DejaVuSans-75" x="1778.388672"/>
     <use xlink:href="#DejaVuSans-6d" x="1841.767578"/>
     <use xlink:href="#DejaVuSans-62" x="1939.179688"/>
     <use xlink:href="#DejaVuSans-65" x="2002.65625"/>
     <use xlink:href="#DejaVuSans-72" x="2064.179688"/>
     <use xlink:href="#DejaVuSans-20" x="2105.292969"/>
     <use xlink:href="#DejaVuSans-64" x="2137.080078"/>
     <use xlink:href="#DejaVuSans-75" x="2200.556641"/>
     <use xlink:href="#DejaVuSans-72" x="2263.935547"/>
     <use xlink:href="#DejaVuSans-69" x="2305.048828"/>
     <use xlink:href="#DejaVuSans-6e" x="2332.832031"/>
     <use xlink:href="#DejaVuSans-67" x="2396.210938"/>
     <use xlink:href="#DejaVuSans-20" x="2459.6875"/>
     <use xlink:href="#DejaVuSans-74" x="2491.474609"/>
     <use xlink:href="#DejaVuSans-72" x="2530.683594"/>
     <use xlink:href="#DejaVuSans-61" x="2571.796875"/>
     <use xlink:href="#DejaVuSans-69" x="2633.076172"/>
     <use xlink:href="#DejaVuSans-6e" x="2660.859375"/>
     <use xlink:href="#DejaVuSans-69" x="2724.238281"/>
     <use xlink:href="#DejaVuSans-6e" x="2752.021484"/>
     <use xlink:href="#DejaVuSans-67" x="2815.400391"/>
     <use xlink:href="#DejaVuSans-20" x="2878.876953"/>
     <use xlink:href="#DejaVuSans-28" x="2910.664062"/>
     <use xlink:href="#DejaVuSans-31" x="2949.677734"/>
     <use xlink:href="#DejaVuSans-30" x="3013.300781"/>
     <use xlink:href="#DejaVuSans-20" x="3076.923828"/>
     <use xlink:href="#DejaVuSans-72" x="3108.710938"/>
     <use xlink:href="#DejaVuSans-75" x="3149.824219"/>
     <use xlink:href="#DejaVuSans-6e" x="3213.203125"/>
     <use xlink:href="#DejaVuSans-73" x="3276.582031"/>
     <use xlink:href="#DejaVuSans-29" x="3328.681641"/>
    </g>
   </g>
   <g id="legend_1">
    <g id="patch_7">
     <path d="M 64.6 93.506375 
L 224.151562 93.506375 
Q 226.151562 93.506375 226.151562 91.506375 
L 226.151562 48.472 
Q 226.151562 46.472 224.151562 46.472 
L 64.6 46.472 
Q 62.6 46.472 62.6 48.472 
L 62.6 91.506375 
Q 62.6 93.506375 64.6 93.506375 
z
" style="fill: #ffffff; opacity: 0.8; stroke: #cccccc; stroke-linejoin: miter"/>
    </g>
    <g id="line2d_15">
     <path d="M 66.6 54.570438 
L 76.6 54.570438 
L 86.6 54.570438 
" style="fill: none; stroke: #1f77b4; stroke-width: 1.5; stroke-linecap: square"/>
    </g>
    <g id="text_16">
     <!-- Mean return over 10 runs -->
     <g transform="translate(94.6 58.070438) scale(0.1 -0.1)">
      <defs>
       <path id="DejaVuSans-4d" d="M 628 4666 
L 1569 4666 
L 2759 1491 
L 3956 4666 
L 4897 4666 
L 4897 0 
L 4281 0 
L 4281 4097 
L 3078 897 
L 2444 897 
L 1241 4097 
L 1241 0 
L 628 0 
L 628 4666 
z
" transform="scale(0.015625)"/>
      </defs>
      <use xlink:href="#DejaVuSans-4d"/>
      <use xlink:href="#DejaVuSans-65" x="86.279297"/>
      <use xlink:href="#DejaVuSans-61" x="147.802734"/>
      <use xlink:href="#DejaVuSans-6e" x="209.082031"/>
      <use xlink:href="#DejaVuSans-20" x="272.460938"/>
      <use xlink:href="#DejaVuSans-72" x="304.248047"/>
      <use xlink:href="#DejaVuSans-65" x="343.111328"/>
      <use xlink:href="#DejaVuSans-74" x="404.634766"/>
      <use xlink:href="#DejaVuSans-75" x="443.84375"/>
      <use xlink:href="#DejaVuSans-72" x="507.222656"/>
      <use xlink:href="#DejaVuSans-6e" x="546.585938"/>
      <use xlink:href="#DejaVuSans-20" x="609.964844"/>
      <use xlink:href="#DejaVuSans-6f" x="641.751953"/>
      <use xlink:href="#DejaVuSans-76" x="702.933594"/>
      <use xlink:href="#DejaVuSans-65" x="762.113281"/>
      <use xlink:href="#DejaVuSans-72" x="823.636719"/>
      <use xlink:href="#DejaVuSans-20" x="864.75"/>
      <use xlink:href="#DejaVuSans-31" x="896.537109"/>
      <use xlink:href="#DejaVuSans-30" x="960.160156"/>
      <use xlink:href="#DejaVuSans-20" x="1023.783203"/>
      <use xlink:href="#DejaVuSans-72" x="1055.570312"/>
      <use xlink:href="#DejaVuSans-75" x="1096.683594"/>
      <use xlink:href="#DejaVuSans-6e" x="1160.0625"/>
      <use xlink:href="#DejaVuSans-73" x="1223.441406"/>
     </g>
    </g>
    <g id="patch_8">
     <path d="M 66.6 72.748563 
L 86.6 72.748563 
L 86.6 65.748563 
L 66.6 65.748563 
z
" style="fill: #0000ff; fill-opacity: 0.3; stroke: #0000ff; stroke-opacity: 0.3; stroke-linejoin: miter"/>
    </g>
    <g id="text_17">
     <!-- Standard Deviation -->
     <g transform="translate(94.6 72.748563) scale(0.1 -0.1)">
      <defs>
       <path id="DejaVuSans-53" d="M 3425 4513 
L 3425 3897 
Q 3066 4069 2747 4153 
Q 2428 4238 2131 4238 
Q 1616 4238 1336 4038 
Q 1056 3838 1056 3469 
Q 1056 3159 1242 3001 
Q 1428 2844 1947 2747 
L 2328 2669 
Q 3034 2534 3370 2195 
Q 3706 1856 3706 1288 
Q 3706 609 3251 259 
Q 2797 -91 1919 -91 
Q 1588 -91 1214 -16 
Q 841 59 441 206 
L 441 856 
Q 825 641 1194 531 
Q 1563 422 1919 422 
Q 2459 422 2753 634 
Q 3047 847 3047 1241 
Q 3047 1584 2836 1778 
Q 2625 1972 2144 2069 
L 1759 2144 
Q 1053 2284 737 2584 
Q 422 2884 422 3419 
Q 422 4038 858 4394 
Q 1294 4750 2059 4750 
Q 2388 4750 2728 4690 
Q 3069 4631 3425 4513 
z
" transform="scale(0.015625)"/>
       <path id="DejaVuSans-44" d="M 1259 4147 
L 1259 519 
L 2022 519 
Q 2988 519 3436 956 
Q 3884 1394 3884 2338 
Q 3884 3275 3436 3711 
Q 2988 4147 2022 4147 
L 1259 4147 
z
M 628 4666 
L 1925 4666 
Q 3281 4666 3915 4102 
Q 4550 3538 4550 2338 
Q 4550 1131 3912 565 
Q 3275 0 1925 0 
L 628 0 
L 628 4666 
z
" transform="scale(0.015625)"/>
      </defs>
      <use xlink:href="#DejaVuSans-53"/>
      <use xlink:href="#DejaVuSans-74" x="63.476562"/>
      <use xlink:href="#DejaVuSans-61" x="102.685547"/>
      <use xlink:href="#DejaVuSans-6e" x="163.964844"/>
      <use xlink:href="#DejaVuSans-64" x="227.34375"/>
      <use xlink:href="#DejaVuSans-61" x="290.820312"/>
      <use xlink:href="#DejaVuSans-72" x="352.099609"/>
      <use xlink:href="#DejaVuSans-64" x="391.462891"/>
      <use xlink:href="#DejaVuSans-20" x="454.939453"/>
      <use xlink:href="#DejaVuSans-44" x="486.726562"/>
      <use xlink:href="#DejaVuSans-65" x="563.728516"/>
      <use xlink:href="#DejaVuSans-76" x="625.251953"/>
      <use xlink:href="#DejaVuSans-69" x="684.431641"/>
      <use xlink:href="#DejaVuSans-61" x="712.214844"/>
      <use xlink:href="#DejaVuSans-74" x="773.494141"/>
      <use xlink:href="#DejaVuSans-69" x="812.703125"/>
      <use xlink:href="#DejaVuSans-6f" x="840.486328"/>
      <use xlink:href="#DejaVuSans-6e" x="901.667969"/>
     </g>
    </g>
    <g id="line2d_16">
     <path d="M 66.6 83.926688 
L 76.6 83.926688 
L 86.6 83.926688 
" style="fill: none; stroke-dasharray: 5.55,2.4; stroke-dashoffset: 0; stroke: #ff0000; stroke-width: 1.5"/>
    </g>
    <g id="text_18">
     <!-- Threshold -->
     <g transform="translate(94.6 87.426688) scale(0.1 -0.1)">
      <defs>
       <path id="DejaVuSans-54" d="M -19 4666 
L 3928 4666 
L 3928 4134 
L 2272 4134 
L 2272 0 
L 1638 0 
L 1638 4134 
L -19 4134 
L -19 4666 
z
" transform="scale(0.015625)"/>
       <path id="DejaVuSans-68" d="M 3513 2113 
L 3513 0 
L 2938 0 
L 2938 2094 
Q 2938 2591 2744 2837 
Q 2550 3084 2163 3084 
Q 1697 3084 1428 2787 
Q 1159 2491 1159 1978 
L 1159 0 
L 581 0 
L 581 4863 
L 1159 4863 
L 1159 2956 
Q 1366 3272 1645 3428 
Q 1925 3584 2291 3584 
Q 2894 3584 3203 3211 
Q 3513 2838 3513 2113 
z
" transform="scale(0.015625)"/>
       <path id="DejaVuSans-6c" d="M 603 4863 
L 1178 4863 
L 1178 0 
L 603 0 
L 603 4863 
z
" transform="scale(0.015625)"/>
      </defs>
      <use xlink:href="#DejaVuSans-54"/>
      <use xlink:href="#DejaVuSans-68" x="61.083984"/>
      <use xlink:href="#DejaVuSans-72" x="124.462891"/>
      <use xlink:href="#DejaVuSans-65" x="163.326172"/>
      <use xlink:href="#DejaVuSans-73" x="224.849609"/>
      <use xlink:href="#DejaVuSans-68" x="276.949219"/>
      <use xlink:href="#DejaVuSans-6f" x="340.328125"/>
      <use xlink:href="#DejaVuSans-6c" x="401.509766"/>
      <use xlink:href="#DejaVuSans-64" x="429.292969"/>
     </g>
    </g>
   </g>
  </g>
 </g>
 <defs>
  <clipPath id="pa17d5f63a8">
   <rect x="57.6" y="41.472" width="357.12" height="266.112"/>
  </clipPath>
 </defs>
</svg>
